<svg xmlns="http://www.w3.org/2000/svg" version="1.0" width="740.000000pt" height="742.000000pt" viewBox="0 0 740.000000 742.000000" preserveAspectRatio="xMidYMid meet">

<g transform="translate(0.000000,742.000000) scale(0.100000,-0.100000)" fill="#000000" stroke="none">
<path d="M0 3710 l0 -3710 3700 0 3700 0 0 3710 0 3710 -3700 0 -3700 0 0 -3710z m4403 2389 c42 -6 77 -14 77 -18 -1 -3 -59 -47 -129 -97 l-129 -91 -69 13 c-74 15 -248 19 -357 8 l-69 -7 7 54 c4 30 9 68 12 85 l6 31 116 17 c65 9 133 18 152 20 60 7 301 -2 383 -15z m-733 -61 c-1 -13 -6 -52 -13 -87 l-12 -63 -80 -23 c-110 -32 -173 -57 -290 -116 l-101 -51 -78 43 c-73 39 -77 43 -60 56 28 21 221 118 284 144 59 23 330 117 343 118 4 1 7 -9 7 -21z m988 -10 c203 -84 344 -212 402 -367 l19 -49 -37 -6 c-30 -4 -294 -36 -414 -49 -24 -3 -29 2 -48 55 -28 76 -117 173 -200 217 -33 18 -60 35 -60 39 1 6 248 189 258 191 2 1 38 -13 80 -31z m-1558 -378 c0 -4 -20 -21 -44 -39 -72 -51 -152 -128 -208 -199 -28 -37 -55 -71 -59 -76 -7 -8 -237 -45 -287 -46 -22 0 -21 3 18 57 74 103 228 252 359 346 l64 46 78 -41 c44 -23 79 -44 79 -48z m207 -258 c25 -34 70 -61 131 -77 l47 -13 -63 -1 c-101 -2 -151 -39 -182 -137 l-18 -59 -1 53 c-2 100 -41 151 -137 182 l-59 19 53 0 c101 1 150 40 180 143 l17 59 6 -71 c4 -48 12 -79 26 -98z m1793 57 c0 -212 -116 -459 -310 -663 l-66 -69 -179 112 c-99 61 -187 115 -195 120 -12 9 -6 20 36 63 129 133 201 269 220 414 3 30 11 54 18 54 6 1 108 14 226 29 118 16 223 29 233 30 15 1 17 -10 17 -90z m-2360 -201 c0 -2 -10 -28 -22 -58 -32 -80 -32 -245 -1 -312 l21 -47 -184 -135 c-211 -154 -191 -154 -225 -9 -24 102 -21 196 12 314 22 79 73 199 86 200 7 0 280 43 306 48 4 0 7 0 7 -1z m273 -221 c8 -13 30 -28 49 -34 27 -9 29 -11 10 -12 -19 -1 -82 -26 -82 -34 0 -1 -7 -20 -15 -42 -14 -39 -14 -39 -15 -10 0 45 -34 93 -72 104 l-33 9 31 1 c41 1 81 33 90 74 l7 32 7 -32 c4 -18 14 -43 23 -56z m1508 -271 c19 -12 59 -34 87 -51 29 -16 52 -33 52 -37 0 -4 -24 -26 -52 -49 -280 -221 -655 -386 -1021 -449 -140 -24 -207 -26 -207 -7 0 23 71 401 76 406 3 3 51 13 107 23 230 38 491 149 671 286 l40 30 105 -66 c58 -36 122 -74 142 -86z m-1693 -27 c58 -52 184 -112 278 -133 40 -9 118 -19 173 -22 67 -5 101 -11 98 -18 -2 -6 -21 -102 -43 -213 l-39 -203 -70 0 c-212 0 -452 62 -609 158 -67 41 -210 176 -204 193 3 10 356 277 366 279 2 0 25 -19 50 -41z m-1691 -1116 l142 -148 1 143 0 142 40 0 40 0 -2 -196 c-3 -190 -4 -197 -25 -211 -21 -14 -28 -9 -167 134 l-145 148 -1 -142 0 -143 -40 0 -40 0 0 194 c0 164 3 197 16 210 8 9 21 16 27 16 7 0 76 -66 154 -147z m1101 2 c78 -80 143 -145 146 -145 4 0 6 63 6 140 l0 140 35 0 35 0 0 -200 c0 -195 0 -200 -22 -211 -20 -11 -33 0 -170 142 l-148 154 0 -147 0 -148 -35 0 -35 0 0 198 c0 198 4 222 36 222 6 0 75 -65 152 -145z m3302 123 c72 -37 90 -73 90 -185 0 -114 -15 -153 -73 -191 -37 -25 -49 -27 -141 -27 -108 0 -140 10 -183 57 -33 35 -43 72 -43 155 0 115 37 179 119 203 14 5 62 9 106 9 65 1 89 -3 125 -21z m367 -125 l142 -148 1 143 0 142 40 0 40 0 -2 -196 c-3 -190 -4 -197 -25 -211 -21 -14 -28 -9 -167 134 l-145 148 -1 -142 0 -143 -40 0 -40 0 0 194 c0 164 3 197 16 210 8 9 21 16 27 16 7 0 76 -66 154 -147z m-5057 -68 l0 -205 -35 0 -35 0 0 205 0 205 35 0 35 0 0 -205z m970 170 l0 -35 -150 0 -150 0 0 -170 0 -170 -35 0 -35 0 0 198 c0 109 3 202 7 205 3 4 87 7 185 7 l178 0 0 -35z m140 -170 l0 -205 -35 0 -35 0 0 205 0 205 35 0 35 0 0 -205z m670 0 l0 -205 -40 0 -40 0 0 205 0 205 40 0 40 0 0 -205z m460 170 l0 -35 -85 0 -85 0 0 -170 0 -170 -35 0 -35 0 0 170 0 170 -80 0 -80 0 0 35 0 35 200 0 200 0 0 -35z m111 -51 c5 -113 10 -116 142 -112 122 4 127 8 127 120 l0 78 35 0 35 0 0 -87 c0 -126 -30 -169 -125 -182 l-40 -6 -3 -67 -3 -68 -34 0 -35 0 0 70 0 70 -35 0 c-48 0 -92 24 -115 63 -16 25 -20 50 -20 120 l0 87 34 0 34 0 3 -86z m953 65 c22 -17 26 -28 26 -69 0 -27 -4 -60 -9 -74 -8 -19 -6 -28 6 -38 23 -19 43 -72 43 -113 0 -27 -8 -44 -29 -66 l-29 -29 -160 0 c-88 0 -167 3 -176 6 -14 5 -16 32 -16 198 0 106 3 196 7 199 3 4 75 7 158 7 139 0 155 -2 179 -21z m506 -14 l0 -35 -150 0 -150 0 0 -125 c0 -113 2 -125 19 -135 11 -5 78 -10 150 -10 l131 0 0 -35 0 -35 -145 0 c-154 0 -193 9 -215 49 -11 22 -14 343 -3 354 3 4 87 7 185 7 l178 0 0 -35z m130 -45 c0 -110 10 -120 125 -120 93 0 130 12 139 44 3 11 6 51 6 89 l0 67 35 0 35 0 0 -87 c0 -70 -4 -95 -20 -120 -23 -39 -67 -63 -115 -63 l-35 0 0 -70 0 -70 -35 0 -34 0 -3 67 -3 68 -49 7 c-36 5 -58 15 -80 38 -30 29 -31 34 -34 130 l-4 100 36 0 36 0 0 -80z m1769 51 c47 -34 71 -91 71 -173 0 -77 -11 -112 -48 -152 -44 -47 -79 -56 -211 -56 -66 0 -126 3 -135 6 -14 5 -16 32 -16 198 0 106 3 196 7 200 4 4 73 6 153 4 134 -3 147 -5 179 -27z m-4769 -176 l0 -35 -120 0 -120 0 0 35 0 35 120 0 120 0 0 -35z m2840 0 l0 -35 -120 0 -120 0 0 35 0 35 120 0 120 0 0 -35z m-2672 -1612 c3 -98 2 -103 -18 -103 -15 0 -20 7 -20 25 0 24 -2 25 -65 25 -63 0 -65 -1 -65 -25 0 -18 -5 -25 -20 -25 -18 0 -20 7 -20 68 1 112 32 143 140 139 l65 -2 3 -102z m112 2 c0 -98 -1 -105 -20 -105 -19 0 -20 7 -20 105 0 98 1 105 20 105 19 0 20 -7 20 -105z m145 28 c22 -40 43 -73 46 -73 4 0 26 34 50 75 59 104 69 100 69 -30 0 -85 -3 -105 -15 -105 -10 0 -15 16 -17 63 l-3 62 -35 -62 c-19 -35 -40 -63 -47 -63 -6 0 -26 26 -45 58 l-33 57 -3 -57 c-3 -50 -6 -58 -22 -58 -19 0 -20 8 -20 106 0 95 2 105 17 102 10 -2 36 -36 58 -75z m555 57 c0 -18 -7 -20 -75 -20 l-75 0 0 -85 c0 -78 -2 -85 -20 -85 -19 0 -20 7 -20 98 0 54 3 102 7 105 3 4 46 7 95 7 81 0 88 -2 88 -20z m255 -5 c21 -20 25 -34 25 -80 0 -46 -4 -60 -25 -80 -20 -21 -34 -25 -85 -25 -51 0 -65 4 -85 25 -21 20 -25 34 -25 80 0 46 4 60 25 80 20 21 34 25 85 25 51 0 65 -4 85 -25z m287 8 c10 -9 18 -28 18 -43 0 -32 -34 -80 -58 -80 -12 -1 -4 -12 23 -35 l40 -35 -28 0 c-19 0 -44 13 -70 35 -22 19 -47 35 -54 35 -7 0 -13 9 -13 20 0 16 8 19 58 22 54 3 57 4 60 31 l3 27 -70 0 -71 0 0 -85 c0 -69 -3 -85 -15 -85 -12 0 -15 18 -15 105 l0 105 87 0 c66 0 91 -4 105 -17z m398 -3 c0 -17 -7 -20 -40 -20 l-40 0 0 -85 c0 -78 -2 -85 -20 -85 -18 0 -20 7 -20 85 l0 85 -40 0 c-33 0 -40 3 -40 20 0 19 7 20 100 20 93 0 100 -1 100 -20z m92 -22 l3 -43 68 -3 67 -3 0 46 c0 33 4 45 15 45 12 0 15 -18 15 -105 0 -87 -3 -105 -15 -105 -11 0 -15 12 -15 45 l0 46 -67 -3 -68 -3 -3 -42 c-2 -29 -8 -43 -18 -43 -11 0 -14 20 -14 105 0 85 3 105 14 105 10 0 16 -14 18 -42z m438 22 c0 -18 -7 -20 -80 -20 l-81 0 3 -62 3 -63 78 -3 c69 -3 77 -5 77 -22 0 -18 -7 -20 -76 -20 -112 0 -114 2 -114 115 l0 95 95 0 c88 0 95 -1 95 -20z m370 0 c0 -18 -7 -20 -76 -20 -72 0 -75 -1 -72 -22 3 -21 9 -23 68 -26 52 -2 69 -7 83 -23 22 -28 22 -54 -3 -79 -17 -17 -33 -20 -105 -20 -78 0 -85 2 -85 20 0 18 7 20 86 20 83 0 85 1 82 23 -3 20 -9 22 -68 25 -71 3 -100 20 -100 59 0 45 32 63 115 63 68 0 75 -2 75 -20z m270 0 c0 -17 -7 -20 -40 -20 l-40 0 0 -85 c0 -78 -2 -85 -20 -85 -18 0 -20 7 -20 85 l0 85 -40 0 c-33 0 -40 3 -40 20 0 19 7 20 100 20 93 0 100 -1 100 -20z m258 -87 c3 -98 2 -103 -18 -103 -15 0 -20 7 -20 25 0 24 -2 25 -65 25 -63 0 -65 -1 -65 -25 0 -19 -5 -25 -21 -25 -20 0 -21 4 -17 76 3 71 6 78 36 105 31 28 38 30 100 27 l67 -3 3 -102z m270 95 c20 -20 15 -85 -8 -108 -11 -11 -25 -20 -32 -20 -7 0 3 -16 22 -35 l34 -35 -25 0 c-15 0 -43 15 -66 35 -23 19 -46 35 -52 35 -6 0 -11 9 -11 19 0 17 8 20 53 23 48 3 52 5 55 31 l3 27 -65 0 -66 0 0 -85 c0 -78 -2 -85 -20 -85 -19 0 -20 7 -20 98 0 54 3 102 7 105 12 12 178 8 191 -5z m262 -8 c0 -18 -7 -20 -76 -20 -72 0 -75 -1 -72 -22 3 -21 9 -23 68 -26 52 -2 69 -7 83 -23 22 -28 22 -54 -3 -79 -17 -17 -33 -20 -105 -20 -78 0 -85 2 -85 20 0 18 7 20 86 20 83 0 85 1 82 23 -3 20 -9 22 -68 25 -71 3 -100 20 -100 59 0 45 32 63 115 63 68 0 75 -2 75 -20z m-2920 -85 c0 -12 -13 -15 -55 -15 -42 0 -55 3 -55 15 0 12 13 15 55 15 42 0 55 -3 55 -15z m1470 0 c0 -12 -13 -15 -60 -15 -47 0 -60 3 -60 15 0 12 13 15 60 15 47 0 60 -3 60 -15z"/>
<path d="M5294 3657 c-47 -41 -46 -176 1 -223 22 -22 32 -24 115 -24 88 0 93 1 121 29 27 27 29 35 29 101 0 74 -16 123 -45 134 -9 3 -57 6 -105 6 -78 0 -92 -3 -116 -23z"/>
<path d="M3880 3545 l0 -136 128 3 127 3 3 28 c6 54 -19 67 -130 67 l-98 0 0 34 0 34 86 3 c95 4 114 16 114 71 l0 28 -115 0 -115 0 0 -135z"/>
<path d="M6290 3545 l0 -135 85 0 c93 0 147 16 164 48 6 12 11 54 11 95 0 72 -1 76 -31 101 -28 24 -38 26 -130 26 l-99 0 0 -135z"/>
<path d="M1807 1982 c-10 -10 -17 -28 -17 -40 0 -20 5 -22 65 -22 l65 0 0 40 0 40 -48 0 c-35 0 -54 -5 -65 -18z"/>
<path d="M2870 1981 c-14 -27 -13 -74 3 -95 10 -14 25 -17 72 -14 59 3 60 3 68 38 6 22 5 45 -2 63 -10 25 -14 27 -70 27 -49 0 -62 -4 -71 -19z"/>
<path d="M4987 1982 c-10 -10 -17 -28 -17 -40 0 -20 5 -22 65 -22 l65 0 0 40 0 40 -48 0 c-35 0 -54 -5 -65 -18z"/>
</g>
</svg>